<?xml version="1.0" ?><svg id="Layer_1" style="enable-background:new 0 0 91 91;" version="1.1" viewBox="0 0 91 91" xml:space="preserve" xmlns="http://www.w3.org/2000/svg" xmlns:xlink="http://www.w3.org/1999/xlink"><g><path d="M31.7,54.2h13.6v21.5h3.4V54.2h13.6c0.9,0,1.7-0.8,1.7-1.7v-4.7c0-3.4-2.6-6.3-5.9-6.7l-1-8.7c-0.1-0.8-0.8-1.5-1.7-1.5   c0,0,0,0,0,0l-16.7,0c-0.9,0-1.6,0.6-1.7,1.5l-1,8.6c-3.3,0.4-5.9,3.2-5.9,6.7v4.7C30,53.5,30.8,54.2,31.7,54.2z"/><path d="M35.9,28.6h22.2c0.9,0,1.7-0.8,1.7-1.7v-3.6c0-3-2.5-5.5-5.5-5.5H39.7c-3,0-5.5,2.5-5.5,5.5v3.6   C34.2,27.9,35,28.6,35.9,28.6z"/></g></svg>